<svg xmlns="http://www.w3.org/2000/svg" width="80" height="80" viewBox="0 0 80 80" fill="none">
  <path d="M70.5422 7.69531L59.5703 7.71484L58.7156 7.71016L58.2913 8.4375L52.925 17.6367L43.7256 17.6562L38.8525 9.31641L38.4424 8.57891L37.588 8.56953L26.6164 8.58891L25.757 8.58391L25.337 9.31141L20.0245 18.4227L9.78048 18.4422L8.92579 18.4375L8.5011 19.165L3.01782 28.5694L2.59782 29.2969L3.0322 30.0294L7.89564 38.3544L2.6222 47.4072L2.19751 48.1347L2.6322 48.8672L8.12048 58.2569L8.52563 58.9991L9.38501 59.0037L19.9806 58.9844L24.8291 67.2703L25.2345 68.0125L26.0939 68.0177L36.6555 67.9981L41.5285 76.338L41.9388 77.0752L42.7934 77.0852L53.765 77.0656L54.595 77.08L55.02 76.3525L60.3567 67.2314L70.6011 67.212L71.4311 67.2267L71.8511 66.4992L77.3636 57.0852L77.7836 56.3577L77.3492 55.6252L71.8608 46.2355L71.4555 45.498L70.5961 45.4886L60.0347 45.508L55.7863 38.2423L60.9331 29.4386L70.5472 29.4191L71.3774 29.4339L71.7972 28.7064L77.305 19.2923L77.73 18.5647L77.2952 17.8322L71.8069 8.4425L71.4017 7.70531L70.5424 7.69562L70.5422 7.69531ZM69.707 10.6103L74.3164 18.5938L69.7024 26.5138L60.4102 26.5283L55.7813 18.5744L60.415 10.6203L69.707 10.6103ZM19.9172 21.3378L24.5266 29.3213L19.9122 37.2412L10.62 37.2559L5.99126 29.3017L10.625 21.3478L19.9172 21.338V21.3378ZM36.6211 30.4003L41.0789 38.1347L36.333 46.2792L27.3049 46.2939L22.6955 38.3694L27.3292 30.4152L36.6214 30.4005L36.6211 30.4003ZM53.0763 39.3603L57.6661 47.3194L53.0517 55.2444L43.76 55.2537L39.2725 47.5439L44.048 39.375L53.0763 39.3603ZM69.7606 48.4033L74.37 56.3869L69.7559 64.3069L60.4638 64.3166L55.835 56.3673L60.4688 48.4131L69.7609 48.4033H69.7606ZM36.2403 49.2142L40.835 57.1778L36.2209 65.0978L26.9288 65.1077L22.2999 57.1534L26.9186 49.2289L36.24 49.2142H36.2403Z" fill="#352403"/>
</svg>