<svg xmlns="http://www.w3.org/2000/svg" width="40" height="40" viewBox="0 0 40 40" fill="none">
  <path d="M4.16669 4.58334C4.16669 4.25182 4.03499 3.93387 3.80057 3.69945C3.56615 3.46503 3.24821 3.33334 2.91669 3.33334C2.58517 3.33334 2.26722 3.46503 2.0328 3.69945C1.79838 3.93387 1.66669 4.25182 1.66669 4.58334V35.4167C1.66669 36.1067 2.22669 36.6667 2.91669 36.6667H33.3334C33.6649 36.6667 33.9828 36.535 34.2172 36.3006C34.4517 36.0661 34.5834 35.7482 34.5834 35.4167C34.5834 35.0851 34.4517 34.7672 34.2172 34.5328C33.9828 34.2984 33.6649 34.1667 33.3334 34.1667H4.16669V4.58334Z" fill="#352403"/>
  <path d="M37.1333 12.9667C37.3541 12.7297 37.4743 12.4163 37.4686 12.0925C37.4629 11.7686 37.3317 11.4597 37.1027 11.2306C36.8737 11.0016 36.5647 10.8704 36.2409 10.8647C35.917 10.859 35.6036 10.9792 35.3667 11.2L25.8333 20.7333L19.6333 14.5333C19.3989 14.2993 19.0812 14.1678 18.75 14.1678C18.4187 14.1678 18.101 14.2993 17.8667 14.5333L7.86666 24.5333C7.74385 24.6478 7.64534 24.7858 7.57702 24.9391C7.5087 25.0924 7.47197 25.258 7.46901 25.4258C7.46604 25.5936 7.49692 25.7604 7.55979 25.916C7.62265 26.0716 7.71623 26.213 7.83493 26.3317C7.95363 26.4504 8.09501 26.544 8.25066 26.6069C8.40631 26.6697 8.57302 26.7006 8.74086 26.6977C8.9087 26.6947 9.07422 26.658 9.22755 26.5896C9.38089 26.5213 9.51889 26.4228 9.63332 26.3L18.75 17.1833L24.95 23.3833C25.1844 23.6174 25.5021 23.7489 25.8333 23.7489C26.1646 23.7489 26.4823 23.6174 26.7167 23.3833L37.1333 12.9667Z" fill="#352403"/>
</svg>