<svg xmlns="http://www.w3.org/2000/svg" width="50" height="50" viewBox="0 0 50 50" fill="none">
  <path d="M44.4258 41.7969C41.1992 36.2187 36.0274 32.4101 30.0352 31.0371C32.8825 29.8705 35.2365 27.7514 36.6949 25.0419C38.1532 22.3324 38.6255 19.2005 38.031 16.1814C37.4365 13.1623 35.8122 10.4433 33.4354 8.4889C31.0587 6.53452 28.0771 5.46606 25 5.46606C21.9229 5.46606 18.9413 6.53452 16.5646 8.4889C14.1878 10.4433 12.5635 13.1623 11.969 16.1814C11.3745 19.2005 11.8468 22.3324 13.3051 25.0419C14.7635 27.7514 17.1175 29.8705 19.9649 31.0371C13.9805 32.4043 8.80079 36.2187 5.57423 41.7969C5.48083 41.9754 5.46002 42.1831 5.51617 42.3767C5.57231 42.5702 5.70105 42.7345 5.87551 42.8354C6.04996 42.9362 6.25663 42.9658 6.45235 42.9178C6.64806 42.8699 6.81769 42.7482 6.92579 42.5781C10.7422 35.9746 17.5039 32.0312 25 32.0312C32.4961 32.0312 39.2578 35.9746 43.0742 42.5781C43.1427 42.6968 43.2412 42.7953 43.3598 42.8639C43.4784 42.9324 43.613 42.9686 43.75 42.9687C43.8873 42.9692 44.0222 42.9327 44.1406 42.8633C44.3197 42.7595 44.4503 42.589 44.5038 42.3891C44.5573 42.1891 44.5292 41.9761 44.4258 41.7969ZM13.2813 18.75C13.2813 16.4322 13.9686 14.1665 15.2562 12.2394C16.5439 10.3123 18.3741 8.81024 20.5154 7.92328C22.6568 7.03631 25.013 6.80424 27.2862 7.25641C29.5594 7.70858 31.6475 8.82469 33.2864 10.4636C34.9253 12.1025 36.0414 14.1906 36.4936 16.4638C36.9458 18.737 36.7137 21.0932 35.8267 23.2346C34.9398 25.3759 33.4377 27.2061 31.5106 28.4938C29.5835 29.7814 27.3178 30.4687 25 30.4687C21.8931 30.4651 18.9145 29.2293 16.7176 27.0324C14.5207 24.8355 13.2849 21.8569 13.2813 18.75Z" fill="#352403"/>
</svg>