<svg xmlns="http://www.w3.org/2000/svg" width="40" height="40" viewBox="0 0 40 40" fill="none">
  <path d="M35 31.6667V20.445C35 19.5408 34.816 18.646 34.4593 17.815C34.1026 16.9841 33.5806 16.2345 32.925 15.6117L22.2967 5.51667C21.6772 4.92814 20.8553 4.6 20.0008 4.6C19.1464 4.6 18.3245 4.92814 17.705 5.51667L7.075 15.6117C6.41942 16.2345 5.89739 16.9841 5.54067 17.815C5.18395 18.646 5 19.5408 5 20.445V31.6667C5 32.5507 5.35119 33.3986 5.97631 34.0237C6.60143 34.6488 7.44928 35 8.33333 35H31.6667C32.5507 35 33.3986 34.6488 34.0237 34.0237C34.6488 33.3986 35 32.5507 35 31.6667Z" stroke="#FADEA3" stroke-width="3.33333" stroke-linecap="round" stroke-linejoin="round"/>
</svg>