<svg xmlns="http://www.w3.org/2000/svg" width="40" height="40" viewBox="0 0 40 40" fill="none">
  <path d="M27.4584 9.01333L30.9867 12.5417M29.7267 5.905L20.1817 15.45C19.6885 15.9425 19.3522 16.57 19.215 17.2533L18.3334 21.6667L22.7467 20.7833C23.43 20.6467 24.0567 20.3117 24.55 19.8183L34.095 10.2733C34.3819 9.98651 34.6094 9.64599 34.7646 9.27123C34.9199 8.89647 34.9997 8.4948 34.9997 8.08917C34.9997 7.68353 34.9199 7.28187 34.7646 6.90711C34.6094 6.53235 34.3819 6.19183 34.095 5.905C33.8082 5.61817 33.4677 5.39065 33.0929 5.23542C32.7182 5.08019 32.3165 5.00029 31.9109 5.00029C31.5052 5.00029 31.1036 5.08019 30.7288 5.23542C30.354 5.39065 30.0135 5.61817 29.7267 5.905Z" stroke="#352403" stroke-width="3.33333" stroke-linecap="round" stroke-linejoin="round"/>
  <path d="M31.6667 25V30C31.6667 30.8841 31.3155 31.7319 30.6904 32.357C30.0653 32.9821 29.2174 33.3333 28.3334 33.3333H10C9.11597 33.3333 8.26812 32.9821 7.643 32.357C7.01788 31.7319 6.66669 30.8841 6.66669 30V11.6667C6.66669 10.7826 7.01788 9.93477 7.643 9.30965C8.26812 8.68453 9.11597 8.33334 10 8.33334H15" stroke="#352403" stroke-width="3.33333" stroke-linecap="round" stroke-linejoin="round"/>
</svg>